<svg id="Capa_1" enable-background="new 0 0 512 512" height="512" viewBox="0 0 512 512" width="512" xmlns="http://www.w3.org/2000/svg"><g><g><path d="m453.032 376.854c-3.253 0-6.276-2.075-7.329-5.337l-93.249-288.585c-1.308-4.049.913-8.392 4.962-9.7 4.05-1.311 8.391.913 9.7 4.962l93.249 288.584c1.308 4.049-.913 8.392-4.962 9.7-.787.255-1.586.376-2.371.376z" fill="#596c76"/></g><g><path d="m46.897 399.614c-4.255 0-7.704-3.449-7.704-7.704v-310.526c0-4.255 3.449-7.704 7.704-7.704s7.704 3.449 7.704 7.704v310.526c0 4.255-3.449 7.704-7.704 7.704z" fill="#596c76"/></g><g><path d="m132.589 399.614c-4.255 0-7.704-3.449-7.704-7.704v-310.526c0-4.255 3.449-7.704 7.704-7.704s7.704 3.449 7.704 7.704v310.526c0 4.255-3.45 7.704-7.704 7.704z" fill="#596c76"/></g><g><path d="m218.28 399.614c-4.255 0-7.704-3.449-7.704-7.704v-310.526c0-4.255 3.449-7.704 7.704-7.704s7.704 3.449 7.704 7.704v310.526c0 4.255-3.449 7.704-7.704 7.704z" fill="#596c76"/></g><g><path d="m303.971 399.614c-4.255 0-7.704-3.449-7.704-7.704v-310.526c0-4.255 3.449-7.704 7.704-7.704s7.704 3.449 7.704 7.704v310.526c0 4.255-3.449 7.704-7.704 7.704z" fill="#596c76"/></g><g fill="#9facba"><circle cx="46.897" cy="424.156" r="42.996"/><circle cx="132.589" cy="424.156" r="42.996"/><circle cx="218.28" cy="424.156" r="42.996"/><circle cx="303.972" cy="424.156" r="42.996"/></g><path d="m346.969 424.154c0 23.749-19.25 42.999-42.999 42.999-13.23 0-25.054-5.968-32.943-15.367 4.941 1.983 10.323 3.071 15.973 3.071 23.749 0 42.999-19.25 42.999-42.999 0-10.529-3.78-20.174-10.067-27.642 15.85 6.339 27.037 21.829 27.037 39.938z" fill="#8d9ca8"/><path d="m261.276 424.152c0 23.749-19.25 42.999-42.999 42.999-13.23 0-25.054-5.968-32.943-15.367 4.941 1.983 10.323 3.071 15.973 3.071 23.749 0 42.999-19.25 42.999-42.999 0-10.529-3.78-20.174-10.067-27.642 15.851 6.338 27.037 21.829 27.037 39.938z" fill="#8d9ca8"/><path d="m175.585 424.152c0 23.749-19.25 42.999-42.999 42.999-13.23 0-25.054-5.968-32.943-15.367 4.941 1.983 10.323 3.071 15.973 3.071 23.749 0 42.999-19.25 42.999-42.999 0-10.529-3.78-20.174-10.067-27.642 15.85 6.338 27.037 21.829 27.037 39.938z" fill="#8d9ca8"/><path d="m89.893 424.152c0 23.749-19.25 42.999-42.999 42.999-13.23 0-25.054-5.968-32.943-15.367 4.941 1.983 10.323 3.071 15.973 3.071 23.749 0 42.999-19.25 42.999-42.999 0-10.529-3.78-20.174-10.067-27.642 15.851 6.338 27.037 21.829 27.037 39.938z" fill="#8d9ca8"/><circle cx="465.089" cy="406.567" fill="#9facba" r="42.996"/><path d="m478.308 447.482c-12.193 3.945-24.858 2.147-35.079-3.893 5.352.38 10.868-.236 16.292-1.983 22.588-7.303 34.987-31.546 27.694-54.134-3.369-10.406-10.324-18.654-19.055-23.8 16.959 1.212 32.285 12.501 37.842 29.676 7.303 22.599-5.096 46.831-27.694 54.134z" fill="#8d9ca8"/><path d="m502.086 89.087h-492.174c-5.474 0-9.912-4.438-9.912-9.912v-24.415c0-5.474 4.438-9.912 9.912-9.912h492.174c5.474 0 9.912 4.438 9.912 9.912v24.414c0 5.475-4.438 9.913-9.912 9.913z" fill="#d77f4a"/><path d="m512 54.759v24.417c0 5.475-4.437 9.913-9.913 9.913h-20.544c5.475 0 9.913-4.438 9.913-9.913v-24.417c0-5.475-4.438-9.913-9.913-9.913h20.544c5.476 0 9.913 4.438 9.913 9.913z" fill="#c86d36"/><g><path d="m53.316 444.391c-2.75 0-5.41-1.476-6.799-4.07-2.008-3.751-.595-8.42 3.156-10.428 2.125-1.137 3.82-3.19 4.535-5.491 1.262-4.063 5.583-6.333 9.643-5.072 4.064 1.262 6.334 5.579 5.072 9.643-1.916 6.169-6.282 11.456-11.978 14.505-1.157.62-2.401.913-3.629.913z" fill="#596c76"/></g><g><path d="m475.043 424.222c-1.923 0-3.85-.716-5.345-2.156-3.064-2.952-3.154-7.829-.202-10.894 1.672-1.735 2.654-4.21 2.627-6.62-.048-4.255 3.362-7.743 7.616-7.791h.089c4.214 0 7.654 3.392 7.702 7.617.073 6.46-2.456 12.834-6.938 17.486-1.513 1.569-3.53 2.358-5.549 2.358z" fill="#596c76"/></g><g><path d="m224.699 444.391c-2.75 0-5.41-1.476-6.799-4.07-2.008-3.751-.594-8.42 3.157-10.428 2.125-1.138 3.82-3.19 4.535-5.491 1.262-4.063 5.581-6.333 9.643-5.072 4.064 1.262 6.334 5.579 5.072 9.643-1.916 6.17-6.283 11.457-11.979 14.505-1.158.62-2.402.913-3.629.913z" fill="#596c76"/></g><g><path d="m310.39 444.391c-2.75 0-5.41-1.476-6.799-4.07-2.008-3.751-.595-8.42 3.156-10.428 2.125-1.137 3.82-3.19 4.535-5.491 1.262-4.063 5.583-6.333 9.643-5.072 4.064 1.262 6.334 5.579 5.072 9.643-1.916 6.169-6.282 11.456-11.978 14.505-1.157.62-2.401.913-3.629.913z" fill="#596c76"/></g><g><path d="m139.008 444.391c-2.75 0-5.41-1.476-6.799-4.07-2.008-3.751-.594-8.42 3.157-10.428 2.124-1.137 3.819-3.19 4.534-5.491 1.262-4.063 5.582-6.333 9.643-5.072 4.064 1.262 6.334 5.579 5.072 9.643-1.916 6.17-6.283 11.457-11.978 14.505-1.158.62-2.403.913-3.629.913z" fill="#596c76"/></g></g></svg>